<svg id="_x33_0" enable-background="new 0 0 62.688 62" height="512" viewBox="0 0 62.688 62" width="512" xmlns="http://www.w3.org/2000/svg"><g><path d="m22.386 38.332.584-2.332h-10.563l.584 2.332c.539 2.16 2.472 3.668 4.697 3.668s4.159-1.508 4.698-3.668zm-7.412-.332h5.43c-.367 1.186-1.462 2-2.715 2s-2.348-.814-2.715-2z"/><path d="m12.688 32h2v-1c0-1.654-1.346-3-3-3s-3 1.346-3 3v1h2v-1c0-.551.448-1 1-1s1 .449 1 1z"/><path d="m22.688 31c0-.551.448-1 1-1s1 .449 1 1v1h2v-1c0-1.654-1.346-3-3-3s-3 1.346-3 3v1h2z"/><path d="m62.688 4v-2c0-1.103-.897-2-2-2h-40c-1.103 0-2 .897-2 2v2c0 1.103.897 2 2 2v4h-6.292c-4.543 0-9.092 1.074-13.155 3.105l-1.241.621 3.274 3.274-2.682 2.681 1.904 8.568c-1.062.462-1.808 1.52-1.808 2.75 0 1.654 1.346 3 3 3h1.051c.396 5.165 3.818 9.484 8.496 11.198l-.338 1.012-1.552.517c-2.785.929-4.657 3.525-4.657 6.462 0 3.756 3.056 6.812 6.812 6.812h3.188c0 1.103.897 2 2 2h31v-2h-4.132l-.857-6h3.989c1.103 0 2-.897 2-2h10c1.103 0 2-.897 2-2v-2c0-1.103-.897-2-2-2v-40c1.103 0 2-.897 2-2zm-42-2h40l.001 2h-40.001zm-18 29c0-.551.448-1 1-1h1v2h-1c-.551 0-1-.449-1-1zm2-3.146v.146h-.197l-1.707-7.681 3.319-3.319-2.699-2.699c3.453-1.509 7.225-2.301 10.992-2.301h8.968c5.142 0 9.324 4.183 9.324 9.325 0 1.005-.161 1.997-.479 2.949l-1.241 3.726h-.28v-.946-1.054c0-2.792-1.987-5.217-4.726-5.765l-1.078-.215-.393 1.961 1.078.215c1.447.29 2.577 1.375 2.969 2.742l-12.42-.653c-2.879-.152-5.432-1.979-6.502-4.656l-1.856.743c.396.989.966 1.872 1.644 2.653l-2.504 1.252c-1.364.681-2.212 2.052-2.212 3.577zm26 2.146h1c.552 0 1 .449 1 1s-.448 1-1 1h-1zm-24 3v-5.146c0-.762.424-1.448 1.105-1.789l3.172-1.586c1.449 1.056 3.193 1.705 5.047 1.803l12.675.667v6.051c0 6.065-4.935 11-11 11s-10.999-4.935-10.999-11zm20 23h-2c0-2.206-1.794-4-4-4h-.243l-.621-2.556 2.05-1.367c2.805.637 4.813 3.094 4.813 6.005v1.918zm-9.219-6h.439l.5 2h-1.439zm5.219 6h-2v-2c1.103 0 2 .897 2 2zm-5-10c.866 0 1.71-.089 2.529-.251l.281.843-2.112 1.408h-1.395l-2.112-1.408.281-.843c.818.162 1.663.251 2.528.251zm-1 12h-3.188c-2.653 0-4.812-2.158-4.812-4.812 0-2.074 1.322-3.909 3.29-4.564l1.562-.521 2.007 1.338-.639 2.559h-1.806c-1.179 0-2.287.459-3.121 1.292l1.414 1.415c.457-.456 1.063-.707 1.708-.707h5.586v2c-1.103 0-2.001.897-2.001 2zm2 0h17.418l-.286 2h-17.132zm19.154 2 1.714-12h2.266l1.714 12zm10.846-8h-4.275l-.612-4.283c-.139-.979-.99-1.717-1.98-1.717h-2.266c-.989 0-1.841.738-1.98 1.717l-.612 4.283h-4.275v-12h16zm-12-17.128v3.128h-2v-2.239zm14 5.128v-9.382l2-1v12.382h-2zm-2-2h-2v-5.382l2-1zm-4 0h-2v-3.382l2-1zm-4 0h-2v-4.017l1.533-.681.467.934zm20 12h-10v-2h10zm-2-4h-8v-2h4v-15.382l1.447-.724-.895-1.789-13.105 6.553-.98-1.96-9.873 4.388.813 1.827.594-.264v1.351c-1.103 0-2 .897-2 2v12c0 1.103.897 2 2 2h3.989l-.286 2h-7.704v-1.917c0-3.809-2.587-7.058-6.233-7.946l-.313-.939c4.678-1.714 8.1-6.033 8.496-11.198h1.051c1.654 0 3-1.346 3-3 0-1.192-.704-2.215-1.714-2.699l1.132-3.395c.315-.942.496-1.917.555-2.906h4.027v-2h-4.084c-.081-.687-.217-1.356-.415-2h4.5v-2h-5.336c-.384-.717-.844-1.385-1.367-2h6.703v-2h-8.912c-1.825-1.259-4.032-2-6.412-2h-.676v-4h36v40z"/><path d="m48.688 24c4.411 0 8-3.589 8-8s-3.589-8-8-8-8 3.589-8 8 3.589 8 8 8zm4.621-11.823-1.771 1.023c-.016-.017-.033-.033-.049-.049l1.023-1.771c.289.24.557.507.797.797zm-.763 2.823c-.005-.021-.013-.041-.019-.062l1.779-1.027c.13.349.229.712.292 1.088h-2.052zm-2.796-2.839c-.021-.006-.041-.014-.061-.019v-2.052c.376.063.739.162 1.088.292zm-1.062 1.839c1.103 0 2 .897 2 2s-.897 2-2 2-2-.897-2-2 .898-2 2-2zm1 7.91v-2.052c1.399-.364 2.494-1.459 2.858-2.858h2.052c-.423 2.507-2.402 4.486-4.91 4.91zm-2-11.82v2.052c-1.721.447-3 2-3 3.858s1.279 3.411 3 3.858v2.052c-2.833-.478-5-2.942-5-5.91s2.167-5.431 5-5.91z"/><path d="m26.688 8h12v2h-12z"/><path d="m34.688 25h2v2h-2z"/><path d="m38.688 25h2v2h-2z"/></g></svg>