<svg height="480pt" viewBox="-37 0 480 480" width="480pt" xmlns="http://www.w3.org/2000/svg"><path d="m403.980469 287.601562-101.820313-101.824218c-3.175781-3.003906-8.140625-3.003906-11.3125 0l-45.257812 45.253906c-3.121094 3.125-3.121094 8.1875 0 11.3125l5.65625 5.65625-15.28125 15.28125-12.253906 2.4375-23.375-23.375c-1.5-1.5-3.535157-2.34375-5.65625-2.34375h-30.625l-14.632813-14.625c3.125-3.121094 3.125-8.1875 0-11.3125l-45.246094-45.261719c-1.503906-1.503906-3.539062-2.347656-5.660156-2.347656-2.125 0-4.160156.84375-5.660156 2.347656l-90.511719 90.511719c-3.125 3.125-3.125 8.1875 0 11.3125l45.253906 45.253906c3.125 3.125 8.1875 3.125 11.3125 0l51.945313 51.945313c-3.492188 7.210937-3.121094 15.691406.980469 22.570312 4.097656 6.878907 11.382812 11.238281 19.386718 11.597657.511719 12.289062 10.367188 22.125 22.65625 22.617187.523438 12.253906 10.339844 22.066406 22.589844 22.589844.503906 9.429687 6.5 17.679687 15.3125 21.074219 8.808594 3.390624 18.792969 1.292968 25.488281-5.363282l8.503907 8.503906c6.675781 6.761719 16.71875 8.929688 25.589843 5.527344 8.867188-3.40625 14.878907-11.738281 15.316407-21.230468 12.273437-.503907 22.105468-10.339844 22.605468-22.613282 12.28125-.519531 22.121094-10.355468 22.640625-22.632812 9.457031-.453125 17.753907-6.445313 21.15625-15.277344 3.402344-8.835938 1.269531-18.84375-5.4375-25.523438l-8.460937-8.464843 22.605468-22.65625 5.65625 5.664062c3.125 3.125 8.1875 3.125 11.3125 0l45.257813-45.253906c3.121094-3.125 3.121094-8.1875 0-11.3125zm-149.902344 31.109376c3.125 3.125 3.125 8.1875 0 11.3125-3.160156 3.035156-8.152344 3.035156-11.3125 0l-33.941406-33.933594c-3.125-3.125-8.191407-3.125-11.3125 0-9.375 9.378906-24.578125 9.378906-33.953125 0l-11.28125 11.308594c2.90625 2.851562 6.230468 5.242187 9.855468 7.089843l-40.964843 40.992188-28.3125-28.28125 71.199219-71.199219h27.3125zm-200.800781-19.800782-33.96875-33.941406 79.203125-79.199219 33.941406 33.941407zm84.855468-62.222656 11.296876 11.3125-67.894532 67.878906-11.3125-11.3125zm62.144532 217.234375c-2.097656.007813-4.113282-.816406-5.597656-2.296875-3.074219-3.085938-3.113282-8.066406-.089844-11.199219l.089844-.089843 16.4375-16.441407 6.167968-6.152343-11.292968-11.34375-6.1875 6.1875-16.503907 16.4375-.070312.089843c-3.1875 2.839844-8.039063 2.679688-11.03125-.367187-2.992188-3.042969-3.066407-7.898438-.167969-11.035156l22.648438-22.632813-11.3125-11.308594-22.625 22.628907c-3.125 3.128906-8.191407 3.128906-11.316407.003906-3.125-3.121094-3.128906-8.1875-.003906-11.3125l22.632813-22.625-11.3125-11.3125-22.640626 22.625c-3.160156 3.023437-8.140624 3.023437-11.304687 0-3.121094-3.125-3.121094-8.1875 0-11.3125l53.480469-53.503906c7.929687.117187 15.714844-2.136719 22.351562-6.472657l28.847656 28.847657c9.5 9.066406 24.445313 9.066406 33.945313 0 9.371094-9.371094 9.371094-24.5625 0-33.9375l-28.078125-28.078126 70.527344 70.519532-2.402344 2.398437c-6.96875-1.929687-14.4375-.574219-20.285156 3.675781-5.851563 4.253907-9.441406 10.941407-9.753906 18.164063-12.355469.523437-22.222657 10.480469-22.632813 22.84375-12.277344.304687-22.1875 10.125-22.605469 22.398437-7.214844.308594-13.894531 3.886719-18.152344 9.71875-4.253906 5.832032-5.621093 13.285157-3.710937 20.25l-2.402344 2.398438c-1.511719 1.464844-3.542969 2.269531-5.648437 2.234375zm48.144531 6.214844c-3.160156 3.027343-8.148437 3.027343-11.3125 0l-11.320313-11.335938c-2.796874-3.167969-2.648437-7.964843.335938-10.953125 2.988281-2.988281 7.785156-3.140625 10.953125-.34375l11.34375 11.296875c1.507813 1.492188 2.351563 3.527344 2.34375 5.648438.007813 2.132812-.835937 4.179687-2.34375 5.6875zm22.625-22.632813c-3.125 3.125-8.1875 3.125-11.3125 0l-11.3125-11.3125c-1.5-1.5-2.347656-3.535156-2.347656-5.660156 0-2.121094.847656-4.160156 2.347656-5.660156 1.492187-1.507813 3.527344-2.351563 5.648437-2.34375 2.121094 0 4.15625.84375 5.65625 2.34375l11.3125 11.3125c1.503907 1.5 2.347657 3.535156 2.347657 5.660156.003906 2.121094-.839844 4.160156-2.339844 5.660156zm22.617187-22.632812c-3.164062 3.023437-8.144531 3.023437-11.304687 0l-11.3125-11.3125c-3.03125-3.136719-2.988281-8.128906.097656-11.214844 3.085938-3.085938 8.074219-3.128906 11.214844-.097656l11.3125 11.3125c1.5 1.5 2.34375 3.535156 2.34375 5.65625.007813 2.125-.839844 4.164062-2.351563 5.65625zm22.636719-22.625c-1.5 1.503906-3.535156 2.347656-5.660156 2.347656-2.121094 0-4.15625-.84375-5.660156-2.347656l-11.308594-11.308594c-3.132813-3.128906-3.136719-8.199219-.007813-11.328125 3.125-3.132813 8.195313-3.136719 11.328126-.007813l11.285156 11.335938c3.125 3.121094 3.125 8.1875 0 11.308594zm2.832031-53.742188-67.878906-67.878906 11.304688-11.3125 67.886718 67.886719zm33.945313-11.304687-90.519531-90.511719 33.945312-33.945312 90.511719 90.515624zm0 0"/><path d="m50.679688 456v-128h-16v128c0 13.253906 10.742187 24 24 24h104v-16h-104c-4.417969 0-8-3.582031-8-8zm0 0"/><path d="m354.679688 456c0 4.417969-3.582032 8-8 8h-64v16h64c13.253906 0 24-10.746094 24-24v-96h-16zm0 0"/><path d="m50.679688 24c0-4.417969 3.582031-8 8-8h224v56c0 13.253906 10.742187 24 24 24h48v128h16v-135.761719c0-1.972656-.730469-3.875-2.050782-5.34375l-72-80.238281c-1.515625-1.691406-3.679687-2.65625-5.949218-2.65625h-232c-13.257813 0-24 10.746094-24 24v168h16zm248 48v-43.078125l45.855468 51.078125h-37.855468c-4.417969 0-8-3.582031-8-8zm0 0"/><path d="m82.679688 48h16v16h-16zm0 0"/><path d="m114.679688 48h64v16h-64zm0 0"/><path d="m82.679688 80h96v16h-96zm0 0"/><path d="m82.679688 128h32v16h-32zm0 0"/><path d="m130.679688 128h192v16h-192zm0 0"/><path d="m146.679688 176h120v16h-120zm0 0"/></svg>