<svg id="Capa_1" enable-background="new 0 0 512 512" height="512" viewBox="0 0 512 512" width="512" xmlns="http://www.w3.org/2000/svg"><g><path d="m505.107 471.828-76.035-76.035c-4.445-4.445-10.354-6.893-16.64-6.893-3.696 0-7.259.852-10.473 2.453l-19.462-19.462c15.752-18.191 25.293-41.899 25.293-67.794 0-57.177-46.517-103.693-103.694-103.693s-103.693 46.516-103.693 103.693 46.517 103.694 103.693 103.694c25.895 0 49.603-9.542 67.794-25.293l19.462 19.462c-1.601 3.214-2.453 6.777-2.453 10.473 0 6.286 2.448 12.195 6.893 16.64l76.035 76.035c4.445 4.445 10.354 6.893 16.64 6.893s12.195-2.448 16.64-6.892c4.445-4.445 6.893-10.354 6.893-16.64s-2.448-12.197-6.893-16.641zm-289.704-167.731c0-48.906 39.788-88.693 88.693-88.693s88.694 39.788 88.694 88.693-39.788 88.694-88.694 88.694-88.693-39.789-88.693-88.694zm188.497 108.336c0-2.279.887-4.421 2.5-6.033 1.611-1.612 3.753-2.499 6.033-2.499 2.279 0 4.421.887 6.033 2.499l6.603 6.603-12.066 12.066-6.603-6.603c-1.612-1.612-2.5-3.755-2.5-6.033zm90.601 82.067c0 .001 0 .001 0 0-1.612 1.612-3.754 2.5-6.033 2.5s-4.421-.887-6.033-2.499l-58.826-58.826 12.066-12.066 58.826 58.826c1.612 1.611 2.499 3.754 2.499 6.033s-.887 4.421-2.499 6.032z"/><path d="m304.097 232.468c-12.728 0-25.294 3.448-36.34 9.972-3.566 2.106-4.75 6.706-2.644 10.272 2.107 3.567 6.706 4.751 10.272 2.644 8.737-5.16 18.666-7.888 28.712-7.888 31.225 0 56.629 25.404 56.629 56.629 0 10.047-2.727 19.976-7.887 28.712-2.106 3.566-.922 8.166 2.644 10.272 1.197.707 2.51 1.043 3.807 1.043 2.565 0 5.065-1.318 6.465-3.687 6.523-11.045 9.971-23.611 9.971-36.34 0-39.496-32.133-71.629-71.629-71.629z"/><path d="m332.809 352.838c-8.736 5.16-18.665 7.887-28.712 7.887-31.225 0-56.629-25.404-56.629-56.629 0-10.047 2.728-19.976 7.888-28.712 2.106-3.566.922-8.166-2.644-10.272-3.566-2.105-8.166-.922-10.272 2.644-6.523 11.046-9.972 23.612-9.972 36.34 0 39.496 32.133 71.629 71.629 71.629 12.729 0 25.295-3.448 36.34-9.971 3.566-2.106 4.75-6.706 2.644-10.272-2.106-3.565-6.703-4.751-10.272-2.644z"/><path d="m111.709 239.452h83.668c4.142 0 7.5-3.358 7.5-7.5s-3.358-7.5-7.5-7.5h-83.668c-35.646 0-64.645-29-64.645-64.645v-96.71h353.742v96.71c0 14.968-4.965 29.018-14.36 40.628-2.605 3.22-2.107 7.942 1.113 10.548 1.388 1.124 3.056 1.67 4.713 1.67 2.186 0 4.353-.951 5.835-2.783 11.413-14.106 17.699-31.885 17.699-50.063v-96.71h.516c9.125 0 16.548 7.423 16.548 16.548v256.516c0 7.003-4.433 13.276-11.031 15.608-3.905 1.381-5.952 5.666-4.571 9.571s5.667 5.952 9.571 4.571c12.579-4.447 21.031-16.403 21.031-29.751v-256.515c0-17.396-14.152-31.548-31.548-31.548h-114.836l-10.668-32.006c-3.208-9.625-12.18-16.091-22.325-16.091h-89.115c-10.145 0-19.117 6.466-22.325 16.091l-10.668 32.006h-114.837c-17.396 0-31.548 14.152-31.548 31.548v256.516c0 17.396 14.152 31.548 31.548 31.548h152.306c4.142 0 7.5-3.358 7.5-7.5s-3.358-7.5-7.5-7.5h-152.306c-9.125 0-16.548-7.423-16.548-16.548v-256.516c0-9.125 7.423-16.548 16.548-16.548h.516v96.71c0 43.916 35.729 79.645 79.645 79.645zm59.575-218.618c1.163-3.489 4.416-5.834 8.094-5.834h89.115c3.678 0 6.931 2.345 8.094 5.834l9.087 27.263h-123.478z"/><path d="m191.871 144.291c-8.556 0-15.516 6.96-15.516 15.516v16.032c0 8.556 6.96 15.516 15.516 15.516h64.129c8.556 0 15.516-6.96 15.516-15.516v-16.032c0-8.556-6.96-15.516-15.516-15.516zm64.645 15.516v16.032c0 .285-.231.516-.516.516h-64.129c-.285 0-.516-.231-.516-.516v-16.032c0-.285.231-.516.516-.516h64.129c.285 0 .516.231.516.516z"/></g></svg>